# xmcd
#
# Track frame offsets: 
#        150
#        10402
#        23556
#        33030
#        41872
#        48504
#        63027
#        76494
#        91833
#        101443
#        114894
#        124235
#        142174
#        151369
#        162548
#        173573
#
# Disc length: 2470 seconds
#
# Revision: 2
# Processed by: cddbd v1.5.2PL0 Copyright (c) Steve Scherf et al.
# Submitted via: ExactAudioCopy v0.95b4
#
DISCID=c309a410
DTITLE=The Seatsniffers - Re-Issued 2 (Jubilee)
DYEAR=2000
DGENRE=Rockabilly
TTITLE0=I'm Ready
TTITLE1=Let's Rock And Roll
TTITLE2=Arabian Lovecall
TTITLE3=Tiger Love And Turnip Greens
TTITLE4=Whistle Bait
TTITLE5=There's A Higher Power
TTITLE6=Jubilee
TTITLE7=Backwoods Preacher Man
TTITLE8=River Of Jordan
TTITLE9=Pure Religion
TTITLE10=He Walks On Water
TTITLE11=Tagging Along
TTITLE12=Alone Again
TTITLE13=Give Your Love To Me
TTITLE14=I Got Hit
TTITLE15=I Won't Call
EXTD=
EXTT0=
EXTT1=
EXTT2=
EXTT3=
EXTT4=
EXTT5=
EXTT6=
EXTT7=
EXTT8=
EXTT9=
EXTT10=
EXTT11=
EXTT12=
EXTT13=
EXTT14=
EXTT15=
PLAYORDER=
